<svg xmlns="http://www.w3.org/2000/svg" version="1.1" xmlns:xlink="http://www.w3.org/1999/xlink" xmlns:svgjs="http://svgjs.com/svgjs" width="1235" height="650"><svg version="1.1" id="SvgjsSvg1074" xmlns="http://www.w3.org/2000/svg" xmlns:xlink="http://www.w3.org/1999/xlink" x="0px" y="0px" viewBox="0 0 1235 650" style="enable-background:new 0 0 1235 650;" xml:space="preserve">
<style type="text/css">
	.st0{fill:#B22234;}
	.st1{fill:#FFFFFF;}
	.st2{fill:#3C3B6E;}
</style>
<g>
	<path class="st0" d="M0,0h1235v650H0V0z"></path>
</g>
<g>
	<path d="M0,75h1235 M1235,175H0 M0,275h1235 M1235,375H0 M0,475h1235 M1235,575H0"></path>
	<path class="st1" d="M1235,600H0v-50h1235V600z M1235,500H0v-50h1235V500z M1235,400H0v-50h1235V400z M1235,300H0v-50h1235V300z
		 M1235,200H0v-50h1235V200z M1235,100H0V50h1235V100z"></path>
</g>
<g>
	<path class="st2" d="M0,0h494v350H0V0z"></path>
</g>
<g>
	<g id="SvgjsG1073">
		<g id="SvgjsG1072">
			<g id="SvgjsG1071">
				<g id="SvgjsG1070">
					<g id="SvgjsG1069">
						<path class="st1" d="M41.2,15l11.8,36.2L22.1,28.8h38L29.4,51.2L41.2,15z"></path>
					</g>
					<g>
						<g id="SvgjsG1068">
							<path class="st1" d="M41.2,85l11.8,36.2L22.1,98.8h38l-30.8,22.4L41.2,85z"></path>
						</g>
					</g>
					<g>
						<g id="SvgjsG1067">
							<path class="st1" d="M41.2,155l11.8,36.2l-30.8-22.4h38l-30.8,22.4L41.2,155z"></path>
						</g>
					</g>
					<g>
						<g id="SvgjsG1066">
							<path class="st1" d="M41.2,225l11.8,36.2l-30.8-22.4h38l-30.8,22.4L41.2,225z"></path>
						</g>
					</g>
				</g>
				<g>
					<g id="SvgjsG1065">
						<path class="st1" d="M41.2,295l11.8,36.2l-30.8-22.4h38l-30.8,22.4L41.2,295z"></path>
					</g>
				</g>
			</g>
			<g>
				<g id="SvgjsG1064">
					<g id="SvgjsG1063">
						<path class="st1" d="M82.3,50l11.8,36.2L63.3,63.8h38L70.6,86.2L82.3,50z"></path>
					</g>
					<g>
						<g id="SvgjsG1062">
							<path class="st1" d="M82.3,120l11.8,36.2l-30.8-22.4h38l-30.8,22.4L82.3,120z"></path>
						</g>
					</g>
					<g>
						<g id="SvgjsG1061">
							<path class="st1" d="M82.3,190l11.8,36.2l-30.8-22.4h38l-30.8,22.4L82.3,190z"></path>
						</g>
					</g>
					<g>
						<g id="SvgjsG1060">
							<path class="st1" d="M82.3,260l11.8,36.2l-30.8-22.4h38l-30.8,22.4L82.3,260z"></path>
						</g>
					</g>
				</g>
			</g>
		</g>
		<g>
			<g id="SvgjsG1059">
				<g id="SvgjsG1058">
					<g id="SvgjsG1057">
						<g id="SvgjsG1056">
							<path class="st1" d="M123.5,15l11.8,36.2l-30.8-22.4h38l-30.8,22.4L123.5,15z"></path>
						</g>
						<g>
							<g id="SvgjsG1055">
								<path class="st1" d="M123.5,85l11.8,36.2l-30.8-22.4h38l-30.8,22.4L123.5,85z"></path>
							</g>
						</g>
						<g>
							<g id="SvgjsG1054">
								<path class="st1" d="M123.5,155l11.8,36.2l-30.8-22.4h38l-30.8,22.4L123.5,155z"></path>
							</g>
						</g>
						<g>
							<g id="SvgjsG1053">
								<path class="st1" d="M123.5,225l11.8,36.2l-30.8-22.4h38l-30.8,22.4L123.5,225z"></path>
							</g>
						</g>
					</g>
					<g>
						<g id="SvgjsG1052">
							<path class="st1" d="M123.5,295l11.8,36.2l-30.8-22.4h38l-30.8,22.4L123.5,295z"></path>
						</g>
					</g>
				</g>
				<g>
					<g id="SvgjsG1051">
						<g id="SvgjsG1050">
							<path class="st1" d="M164.7,50l11.8,36.2l-30.8-22.4h38l-30.8,22.4L164.7,50z"></path>
						</g>
						<g>
							<g id="SvgjsG1049">
								<path class="st1" d="M164.7,120l11.8,36.2l-30.8-22.4h38l-30.8,22.4L164.7,120z"></path>
							</g>
						</g>
						<g>
							<g id="SvgjsG1048">
								<path class="st1" d="M164.7,190l11.8,36.2l-30.8-22.4h38l-30.8,22.4L164.7,190z"></path>
							</g>
						</g>
						<g>
							<g id="SvgjsG1047">
								<path class="st1" d="M164.7,260l11.8,36.2l-30.8-22.4h38l-30.8,22.4L164.7,260z"></path>
							</g>
						</g>
					</g>
				</g>
			</g>
		</g>
	</g>
	<g>
		<g id="SvgjsG1046">
			<g id="SvgjsG1045">
				<g id="SvgjsG1044">
					<g id="SvgjsG1043">
						<g id="SvgjsG1042">
							<path class="st1" d="M205.8,15l11.8,36.2l-30.8-22.4h38l-30.8,22.4L205.8,15z"></path>
						</g>
						<g>
							<g id="SvgjsG1041">
								<path class="st1" d="M205.8,85l11.8,36.2l-30.8-22.4h38l-30.8,22.4L205.8,85z"></path>
							</g>
						</g>
						<g>
							<g id="SvgjsG1040">
								<path class="st1" d="M205.8,155l11.8,36.2l-30.8-22.4h38l-30.8,22.4L205.8,155z"></path>
							</g>
						</g>
						<g>
							<g id="SvgjsG1039">
								<path class="st1" d="M205.8,225l11.8,36.2l-30.8-22.4h38l-30.8,22.4L205.8,225z"></path>
							</g>
						</g>
					</g>
					<g>
						<g id="SvgjsG1038">
							<path class="st1" d="M205.8,295l11.8,36.2l-30.8-22.4h38l-30.8,22.4L205.8,295z"></path>
						</g>
					</g>
				</g>
				<g>
					<g id="SvgjsG1037">
						<g id="SvgjsG1036">
							<path class="st1" d="M247,50l11.8,36.2L228,63.8h38l-30.8,22.4L247,50z"></path>
						</g>
						<g>
							<g id="SvgjsG1035">
								<path class="st1" d="M247,120l11.8,36.2L228,133.8h38l-30.8,22.4L247,120z"></path>
							</g>
						</g>
						<g>
							<g id="SvgjsG1034">
								<path class="st1" d="M247,190l11.8,36.2L228,203.8h38l-30.8,22.4L247,190z"></path>
							</g>
						</g>
						<g>
							<g id="SvgjsG1033">
								<path class="st1" d="M247,260l11.8,36.2L228,273.8h38l-30.8,22.4L247,260z"></path>
							</g>
						</g>
					</g>
				</g>
			</g>
			<g>
				<g id="SvgjsG1032">
					<g id="SvgjsG1031">
						<g id="SvgjsG1030">
							<g id="SvgjsG1029">
								<path class="st1" d="M288.2,15l11.8,36.2l-30.8-22.4h38l-30.8,22.4L288.2,15z"></path>
							</g>
							<g>
								<g id="SvgjsG1028">
									<path class="st1" d="M288.2,85l11.8,36.2l-30.8-22.4h38l-30.8,22.4L288.2,85z"></path>
								</g>
							</g>
							<g>
								<g id="SvgjsG1027">
									<path class="st1" d="M288.2,155l11.8,36.2l-30.8-22.4h38l-30.8,22.4L288.2,155z"></path>
								</g>
							</g>
							<g>
								<g id="SvgjsG1026">
									<path class="st1" d="M288.2,225l11.8,36.2l-30.8-22.4h38l-30.8,22.4L288.2,225z"></path>
								</g>
							</g>
						</g>
						<g>
							<g id="SvgjsG1025">
								<path class="st1" d="M288.2,295l11.8,36.2l-30.8-22.4h38l-30.8,22.4L288.2,295z"></path>
							</g>
						</g>
					</g>
					<g>
						<g id="SvgjsG1024">
							<g id="SvgjsG1023">
								<path class="st1" d="M329.3,50l11.8,36.2l-30.8-22.4h38l-30.8,22.4L329.3,50z"></path>
							</g>
							<g>
								<g id="SvgjsG1022">
									<path class="st1" d="M329.3,120l11.8,36.2l-30.8-22.4h38l-30.8,22.4L329.3,120z"></path>
								</g>
							</g>
							<g>
								<g id="SvgjsG1021">
									<path class="st1" d="M329.3,190l11.8,36.2l-30.8-22.4h38l-30.8,22.4L329.3,190z"></path>
								</g>
							</g>
							<g>
								<g id="SvgjsG1020">
									<path class="st1" d="M329.3,260l11.8,36.2l-30.8-22.4h38l-30.8,22.4L329.3,260z"></path>
								</g>
							</g>
						</g>
					</g>
				</g>
			</g>
		</g>
	</g>
	<g>
		<g id="SvgjsG1019">
			<g id="SvgjsG1018">
				<g id="SvgjsG1017">
					<g id="SvgjsG1016">
						<path class="st1" d="M370.5,15l11.8,36.2l-30.8-22.4h38l-30.8,22.4L370.5,15z"></path>
					</g>
					<g>
						<g id="SvgjsG1015">
							<path class="st1" d="M370.5,85l11.8,36.2l-30.8-22.4h38l-30.8,22.4L370.5,85z"></path>
						</g>
					</g>
					<g>
						<g id="SvgjsG1014">
							<path class="st1" d="M370.5,155l11.8,36.2l-30.8-22.4h38l-30.8,22.4L370.5,155z"></path>
						</g>
					</g>
					<g>
						<g id="SvgjsG1013">
							<path class="st1" d="M370.5,225l11.8,36.2l-30.8-22.4h38l-30.8,22.4L370.5,225z"></path>
						</g>
					</g>
				</g>
				<g>
					<g id="SvgjsG1012">
						<path class="st1" d="M370.5,295l11.8,36.2l-30.8-22.4h38l-30.8,22.4L370.5,295z"></path>
					</g>
				</g>
			</g>
			<g>
				<g id="SvgjsG1011">
					<g id="SvgjsG1010">
						<path class="st1" d="M411.7,50l11.8,36.2l-30.8-22.4h38l-30.8,22.4L411.7,50z"></path>
					</g>
					<g>
						<g id="SvgjsG1009">
							<path class="st1" d="M411.7,120l11.8,36.2l-30.8-22.4h38l-30.8,22.4L411.7,120z"></path>
						</g>
					</g>
					<g>
						<g id="SvgjsG1008">
							<path class="st1" d="M411.7,190l11.8,36.2l-30.8-22.4h38l-30.8,22.4L411.7,190z"></path>
						</g>
					</g>
					<g>
						<g id="SvgjsG1007">
							<path class="st1" d="M411.7,260l11.8,36.2l-30.8-22.4h38l-30.8,22.4L411.7,260z"></path>
						</g>
					</g>
				</g>
			</g>
		</g>
	</g>
	<g>
		<g id="SvgjsG1006">
			<g id="SvgjsG1005">
				<g id="SvgjsG1004">
					<path class="st1" d="M452.8,15l11.8,36.2l-30.8-22.4h38l-30.8,22.4L452.8,15z"></path>
				</g>
				<g>
					<g id="SvgjsG1003">
						<path class="st1" d="M452.8,85l11.8,36.2l-30.8-22.4h38l-30.8,22.4L452.8,85z"></path>
					</g>
				</g>
				<g>
					<g id="SvgjsG1002">
						<path class="st1" d="M452.8,155l11.8,36.2l-30.8-22.4h38l-30.8,22.4L452.8,155z"></path>
					</g>
				</g>
				<g>
					<g id="SvgjsG1001">
						<path class="st1" d="M452.8,225l11.8,36.2l-30.8-22.4h38l-30.8,22.4L452.8,225z"></path>
					</g>
				</g>
			</g>
			<g>
				<g id="SvgjsG1000">
					<path class="st1" d="M452.8,295l11.8,36.2l-30.8-22.4h38l-30.8,22.4L452.8,295z"></path>
				</g>
			</g>
		</g>
	</g>
</g>
</svg><style>@media (prefers-color-scheme: light) { :root { filter: none; } }
</style></svg>