<svg xmlns="http://www.w3.org/2000/svg" aria-hidden="true" style="position:absolute;width:0;height:0;overflow:hidden">
  <defs>
  <symbol id="icon-chevrons-down" viewBox="0 0 24 24">
<path d="m6.293 13.707 5 5a.999.999 0 0 0 1.414 0l5-5a.999.999 0 1 0-1.414-1.414L12 16.586l-4.293-4.293a.999.999 0 1 0-1.414 1.414zm0-7 5 5a.999.999 0 0 0 1.414 0l5-5a.999.999 0 1 0-1.414-1.414L12 9.586 7.707 5.293a.999.999 0 1 0-1.414 1.414z"/>
</symbol>
<symbol id="icon-chevrons-up" viewBox="0 0 24 24">
<path d="m17.707 10.293-5-5a.999.999 0 0 0-1.414 0l-5 5a.999.999 0 1 0 1.414 1.414L12 7.414l4.293 4.293a.999.999 0 1 0 1.414-1.414zm0 7-5-5a.999.999 0 0 0-1.414 0l-5 5a.999.999 0 1 0 1.414 1.414L12 14.414l4.293 4.293a.999.999 0 1 0 1.414-1.414z"/>
</symbol>
    <symbol id="youtube" viewBox="0 0 32 32">
      <path d="M31.681 9.6c0 0-0.313-2.206-1.275-3.175-1.219-1.275-2.581-1.281-3.206-1.356-4.475-0.325-11.194-0.325-11.194-0.325h-0.012c0 0-6.719 0-11.194 0.325-0.625 0.075-1.987 0.081-3.206 1.356-0.963 0.969-1.269 3.175-1.269 3.175s-0.319 2.588-0.319 5.181v2.425c0 2.587 0.319 5.181 0.319 5.181s0.313 2.206 1.269 3.175c1.219 1.275 2.819 1.231 3.531 1.369 2.563 0.244 10.881 0.319 10.881 0.319s6.725-0.012 11.2-0.331c0.625-0.075 1.988-0.081 3.206-1.356 0.962-0.969 1.275-3.175 1.275-3.175s0.319-2.587 0.319-5.181v-2.425c-0.006-2.588-0.325-5.181-0.325-5.181zM12.694 20.15v-8.994l8.644 4.513-8.644 4.481z"></path>
    </symbol>
    <symbol id="mail" viewBox="0 0 43 32">
      <path d="M38.667 0H4C1.794 0 0 1.794 0 4v24c0 2.206 1.794 4 4 4h34.667c2.206 0 4-1.794 4-4V4c0-2.206-1.794-4-4-4zm0 2.667c.181 0 .353.038.511.103L21.334 18.236 3.49 2.77a1.32 1.32 0 0 1 .511-.103h34.667zm0 26.666H4A1.334 1.334 0 0 1 2.667 28V5.587L20.46 21.008a1.335 1.335 0 0 0 1.748 0L40.001 5.587V28c0 .736-.598 1.333-1.333 1.333z" />
    </symbol>
    <symbol id="facebook" viewBox="0 0 32 32">
      <path d="M21.329 5.313h2.921V.225C23.746.156 22.013 0 19.994 0c-4.212 0-7.097 2.649-7.097 7.519V12H8.249v5.688h4.648V32h5.699V17.689h4.46l.708-5.688h-5.169V8.082c.001-1.644.444-2.769 2.735-2.769z"/>
    </symbol>
    <symbol id="instagram" viewBox="0 0 32 32">
      <path d="M31.969 9.408c-.075-1.7-.35-2.869-.744-3.882a7.806 7.806 0 0 0-1.851-2.838A7.867 7.867 0 0 0 26.542.844C25.523.45 24.36.175 22.66.1 20.947.019 20.403 0 16.059 0s-4.888.019-6.595.094c-1.7.075-2.869.35-3.882.744a7.803 7.803 0 0 0-2.838 1.85A7.867 7.867 0 0 0 .9 5.52C.506 6.539.231 7.702.156 9.402c-.081 1.713-.1 2.257-.1 6.601s.019 4.888.094 6.595c.075 1.7.35 2.869.744 3.882a7.895 7.895 0 0 0 1.85 2.838 7.867 7.867 0 0 0 2.832 1.844c1.019.394 2.182.669 3.882.744 1.706.075 2.25.094 6.595.094s4.888-.019 6.595-.094c1.7-.075 2.869-.35 3.882-.744a8.184 8.184 0 0 0 4.682-4.682c.394-1.019.669-2.182.744-3.882.075-1.707.094-2.251.094-6.595s-.006-4.888-.081-6.595zm-2.882 13.065c-.069 1.563-.331 2.407-.55 2.969a5.31 5.31 0 0 1-3.038 3.038c-.563.219-1.413.481-2.969.55-1.688.075-2.194.094-6.464.094s-4.782-.019-6.464-.094c-1.563-.069-2.407-.331-2.969-.55a4.926 4.926 0 0 1-1.838-1.194 4.974 4.974 0 0 1-1.194-1.838c-.219-.563-.481-1.413-.55-2.969-.075-1.688-.094-2.194-.094-6.464s.019-4.782.094-6.464c.069-1.563.331-2.407.55-2.969a4.868 4.868 0 0 1 1.2-1.838A4.974 4.974 0 0 1 6.639 3.55c.563-.219 1.413-.481 2.969-.55 1.688-.075 2.194-.094 6.464-.094 4.276 0 4.782.019 6.464.094 1.563.069 2.407.331 2.969.55a4.914 4.914 0 0 1 1.838 1.194 4.974 4.974 0 0 1 1.194 1.838c.219.563.481 1.413.55 2.969.075 1.688.094 2.194.094 6.464s-.019 4.77-.094 6.458z"/>
      <path d="M16.059 7.783c-4.538 0-8.22 3.682-8.22 8.22s3.682 8.22 8.22 8.22c4.539 0 8.22-3.682 8.22-8.22s-3.682-8.22-8.22-8.22zm0 13.552a5.333 5.333 0 0 1 0-10.664 5.333 5.333 0 0 1 0 10.664zM26.524 7.458a1.919 1.919 0 1 1-3.838 0 1.919 1.919 0 0 1 3.838 0z"/>
    </symbol>
    <symbol id="linkedin" viewBox="0 0 32 32">
      <path d="M31.992 32v-.001H32V20.263c0-5.741-1.236-10.164-7.948-10.164-3.227 0-5.392 1.771-6.276 3.449h-.093v-2.913h-6.364v21.364h6.627V21.42c0-2.785.528-5.479 3.977-5.479 3.399 0 3.449 3.179 3.449 5.657v10.401h6.62zM.528 10.636h6.635V32H.528V10.636zM3.843 0C1.722 0 0 1.721 0 3.843s1.721 3.879 3.843 3.879c2.121 0 3.843-1.757 3.843-3.879A3.846 3.846 0 0 0 3.843 0z"/>
    </symbol>
    <symbol id="phone" viewBox="0 0 20 32">
      <path d="M17 0H3C1.346 0 0 1.346 0 3v26c0 1.654 1.346 3 3 3h14c1.654 0 3-1.346 3-3V3c0-1.654-1.346-3-3-3zM3 2h14a1 1 0 0 1 1 1v21H2V3a1 1 0 0 1 1-1zm14 28H3a1 1 0 0 1-1-1v-3h16v3a1 1 0 0 1-1 1z"/>
      <path d="M4.707 27.478c.391.365.391.956 0 1.321s-1.024.365-1.414 0c-.391-.365-.391-.956 0-1.321s1.024-.365 1.414 0z"/>
    </symbol>
    <symbol id="twitter" viewBox="0 0 32 32">
      <path d="M32 6.078c-1.19.522-2.458.868-3.78 1.036a6.523 6.523 0 0 0 2.886-3.626 13.11 13.11 0 0 1-4.16 1.588A6.574 6.574 0 0 0 22.154 3c-3.632 0-6.556 2.948-6.556 6.562 0 .52.044 1.02.152 1.496-5.454-.266-10.28-2.88-13.522-6.862a6.605 6.605 0 0 0-.898 3.316 6.57 6.57 0 0 0 2.914 5.452 6.479 6.479 0 0 1-2.964-.808v.072c0 3.188 2.274 5.836 5.256 6.446a6.548 6.548 0 0 1-1.72.216 5.8 5.8 0 0 1-1.242-.112c.85 2.598 3.262 4.508 6.13 4.57a13.182 13.182 0 0 1-8.134 2.798c-.538 0-1.054-.024-1.57-.09A18.469 18.469 0 0 0 10.064 29c12.072 0 18.672-10 18.672-18.668 0-.29-.01-.57-.024-.848A13.087 13.087 0 0 0 32 6.078z"/>
    </symbol>
    <symbol id="close" viewBox="0 0 32 32">
      <path d="m26.667 7.303-1.97-1.97-7.808 7.808-7.808-7.808-1.97 1.97 7.808 7.808-7.808 7.808 1.97 1.97 7.808-7.808 7.808 7.808 1.97-1.97-7.808-7.808 7.808-7.808z"/>
    </symbol>
     <symbol id="icon-send" viewBox="0 0 32 32">
      <path d="M32 0 0 18l10.227 3.788L26 7 14.002 23.186l.01.004-.012-.004V32l5.735-6.691L27 28l5-28z"/>
    </symbol>
    <symbol id="icon-accept" viewBox="0 0 32 32">
      <path stroke="#fff" stroke-width=".492" d="m4.817 15.389-.169-.162-2.544 2.41 8.962 8.55L29.895 8.225l-2.527-2.411L11.066 21.35l-6.249-5.962z"/>
    </symbol>
    <symbol id="icon-Vector" viewBox="0 0 32 32">
      <path d="M28.444 4.333v23.333H3.555V4.333h24.889zm0-3.333H3.555C1.599 1-.001 2.5-.001 4.333v23.333c0 1.833 1.6 3.333 3.556 3.333h24.889c1.956 0 3.556-1.5 3.556-3.333V4.333C32 2.5 30.4 1 28.444 1z"/>
    </symbol>
    <symbol id="icon-email" viewBox="0 0 32 32">
      <path d="M26.667 5.333H5.334A2.663 2.663 0 0 0 2.681 8l-.013 16c0 1.467 1.2 2.667 2.667 2.667h21.333c1.467 0 2.667-1.2 2.667-2.667V8c0-1.467-1.2-2.667-2.667-2.667zM26.133 11l-9.427 5.893a1.346 1.346 0 0 1-1.413 0L5.866 11a1.132 1.132 0 1 1 1.2-1.92l8.933 5.587 8.933-5.587a1.132 1.132 0 1 1 1.2 1.92z"/>
    </symbol>
    <symbol id="icon-phone" viewBox="0 0 32 32">
      <path d="m24.882 19.773-3.268-.373a2.561 2.561 0 0 0-2.11.733L17.137 22.5a19.357 19.357 0 0 1-8.478-8.478l2.38-2.38a2.561 2.561 0 0 0 .733-2.11l-.373-3.242a2.575 2.575 0 0 0-2.56-2.277H6.613c-1.454 0-2.663 1.209-2.573 2.663.682 10.987 9.469 19.761 20.443 20.443 1.454.09 2.663-1.119 2.663-2.573V22.32a2.549 2.549 0 0 0-2.264-2.547z"/>
    </symbol>
    <symbol id="icon-person" viewBox="0 0 32 32">
      <path d="M16 16c2.947 0 5.333-2.387 5.333-5.333S18.946 5.334 16 5.334c-2.947 0-5.333 2.387-5.333 5.333S13.054 16 16 16zm0 2.667c-3.56 0-10.667 1.787-10.667 5.333v1.333c0 .733.6 1.333 1.333 1.333h18.667c.733 0 1.333-.6 1.333-1.333V24c0-3.547-7.107-5.333-10.667-5.333z"/>
    </symbol>
     <symbol id="close-menu" viewBox="0 0 32 32">
      <path d="M23.733 10.304 22.229 8.8l-5.963 5.963L10.303 8.8l-1.504 1.504 5.963 5.963-5.963 5.963 1.504 1.504 5.963-5.963 5.963 5.963 1.504-1.504-5.963-5.963 5.963-5.963z"/>
    </symbol>
    <symbol id="open-menu" viewBox="6 5 20 20">
      <path d="M6.4 11.733V9.6h19.2v2.133H6.4zm0 5.334h19.2v-2.133H6.4v2.133zm0 5.333h19.2v-2.133H6.4V22.4z"/>
    </symbol>
    <symbol id="deflag" viewBox="0 0 53 32">
      <path d="M0-.056h60.8v32.113H0V-.056z" style="fill:var(--color1, #000)"/>
      <path fill="#d00" d="M0 10.648h60.8v21.408H0z" style="fill:var(--color2, #d00)"/>
      <path fill="#ffce00" d="M0 21.352h60.8v10.704H0z" style="fill:var(--color3, #ffce00)"/>
    </symbol>
    <symbol id="ukrflag" viewBox="0 0 53 32">
      <path fill="#005bbb" d="M0 0h60.8v32H0V0z" style="fill:var(--color4, #005bbb)"/>
      <path fill="#ffd500" d="M0 16h60.8v16H0z" style="fill:var(--color5, #ffd500)"/>
    </symbol>
    <symbol id="usaflag" viewBox="0 0 53 32">
      <path fill="#b22234" d="M-.001 0h60.8v32h-60.8V0z" style="fill:var(--color6, #b22234)"/>
      <path d="M-.001 3.692h60.8zm60.8 4.923h-60.8zm-60.8 4.923h60.8zm60.8 4.924h-60.8zm-60.8 4.923h60.8zm60.8 4.923h-60.8z" style="fill:var(--color1, #000)"/>
      <path fill="#fff" d="M60.799 29.538h-60.8v-2.462h60.8v2.462zm0-4.923h-60.8v-2.462h60.8v2.462zm0-4.923h-60.8V17.23h60.8v2.462zm0-4.923h-60.8v-2.462h60.8v2.462zm0-4.923h-60.8V7.384h60.8v2.462zm0-4.923h-60.8V2.461h60.8v2.462z" style="fill:var(--color7, #fff)"/>
      <path fill="#3c3b6e" d="M-.001 0h24.32v17.231H-.001V0z" style="fill:var(--color8, #3c3b6e)"/>
      <path fill="#fff" d="m2.027.738.581 1.782-1.521-1.103h1.871L1.447 2.52 2.028.738zM2.027 4.185l.581 1.782-1.521-1.103h1.871L1.442 5.967l.586-1.782zM2.027 7.631l.581 1.782L1.092 8.31h1.871L1.447 9.413l.581-1.782zM2.027 11.077l.581 1.782-1.516-1.103h1.871l-1.516 1.103.581-1.782zM2.027 14.523l.581 1.782-1.516-1.103h1.871l-1.516 1.103.581-1.782zM4.051 2.462l.581 1.782-1.516-1.103h1.871L3.476 4.244l.576-1.782zM4.051 5.908l.581 1.782-1.516-1.103h1.871L3.471 7.69l.581-1.782zM4.051 9.354l.581 1.782-1.516-1.103h1.871l-1.516 1.103.581-1.782zM4.051 12.8l.581 1.782-1.516-1.103h1.871l-1.516 1.103.581-1.782zM6.079.738 6.66 2.52 5.144 1.417h1.871L5.499 2.52 6.08.738zM6.079 4.185l.581 1.782-1.516-1.103h1.871L5.499 5.967l.581-1.782zM6.079 7.631l.581 1.782L5.144 8.31h1.871L5.499 9.413l.581-1.782zM6.079 11.077l.581 1.782-1.516-1.103h1.871l-1.516 1.103.581-1.782zM6.079 14.523l.581 1.782-1.516-1.103h1.871l-1.516 1.103.581-1.782zM8.107 2.462l.581 1.782-1.516-1.103h1.871L7.527 4.244l.581-1.782zM8.107 5.908l.581 1.782-1.516-1.103h1.871L7.527 7.69l.581-1.782zM8.107 9.354l.581 1.782-1.516-1.103h1.871l-1.516 1.103.581-1.782zM8.107 12.8l.581 1.782-1.516-1.103h1.871l-1.516 1.103.581-1.782zM10.131.738l.581 1.782-1.516-1.103h1.871L9.551 2.52l.581-1.782zM10.131 4.185l.581 1.782-1.516-1.103h1.871L9.551 5.967l.581-1.782zM10.131 7.631l.581 1.782L9.196 8.31h1.871L9.551 9.413l.581-1.782zM10.131 11.077l.581 1.782-1.516-1.103h1.871l-1.516 1.103.581-1.782zM10.131 14.523l.581 1.782-1.516-1.103h1.871l-1.516 1.103.581-1.782zM12.159 2.462l.581 1.782-1.516-1.103h1.871l-1.516 1.103.581-1.782zM12.159 5.908l.581 1.782-1.516-1.103h1.871L11.579 7.69l.581-1.782zM12.159 9.354l.581 1.782-1.516-1.103h1.871l-1.516 1.103.581-1.782zM12.159 12.8l.581 1.782-1.516-1.103h1.871l-1.516 1.103.581-1.782zM14.187.738l.581 1.782-1.516-1.103h1.871L13.607 2.52l.581-1.782zM14.187 4.185l.581 1.782-1.516-1.103h1.871l-1.516 1.103.581-1.782zM14.187 7.631l.581 1.782-1.516-1.103h1.871l-1.516 1.103.581-1.782zM14.187 11.077l.581 1.782-1.516-1.103h1.871l-1.516 1.103.581-1.782zM14.187 14.523l.581 1.782-1.516-1.103h1.871l-1.516 1.103.581-1.782zM16.211 2.462l.581 1.782-1.516-1.103h1.871l-1.516 1.103.581-1.782zM16.211 5.908l.581 1.782-1.516-1.103h1.871L15.631 7.69l.581-1.782zM16.211 9.354l.581 1.782-1.516-1.103h1.871l-1.516 1.103.581-1.782zM16.211 12.8l.581 1.782-1.516-1.103h1.871l-1.516 1.103.581-1.782zM18.239.738l.581 1.782-1.516-1.103h1.871L17.659 2.52 18.24.738zM18.239 4.185l.581 1.782-1.516-1.103h1.871l-1.516 1.103.581-1.782zM18.239 7.631l.581 1.782-1.516-1.103h1.871l-1.516 1.103.581-1.782zM18.239 11.077l.581 1.782-1.516-1.103h1.871l-1.516 1.103.581-1.782zM18.239 14.523l.581 1.782-1.516-1.103h1.871l-1.516 1.103.581-1.782zM20.267 2.462l.581 1.782-1.516-1.103h1.871l-1.516 1.103.581-1.782zM20.267 5.908l.581 1.782-1.516-1.103h1.871L19.687 7.69l.581-1.782zM20.267 9.354l.581 1.782-1.516-1.103h1.871l-1.516 1.103.581-1.782zM20.267 12.8l.581 1.782-1.516-1.103h1.871l-1.516 1.103.581-1.782zM22.291.738l.581 1.782-1.516-1.103h1.871L21.711 2.52l.581-1.782zM22.291 4.185l.581 1.782-1.516-1.103h1.871l-1.516 1.103.581-1.782zM22.291 7.631l.581 1.782-1.516-1.103h1.871l-1.516 1.103.581-1.782zM22.291 11.077l.581 1.782-1.516-1.103h1.871l-1.516 1.103.581-1.782zM22.291 14.523l.581 1.782-1.516-1.103h1.871l-1.516 1.103.581-1.782z" style="fill:var(--color7, #fff)"/>
    </symbol>
    <symbol id="geolocation" viewBox="0 0 32 32">
      <path d="M15.875 1.117c-0.545 0.050-1.192 0.182-1.705 0.347-2.572 0.83-4.525 2.957-5.092 5.558-0.28 1.272-0.217 2.607 0.172 3.84 0.070 0.215 7.165 19.688 7.258 19.915l0.032 0.085 0.027-0.075c0.015-0.043 1.637-4.49 3.607-9.887s3.608-9.898 3.642-10c0.582-1.828 0.445-3.78-0.383-5.5-0.395-0.817-0.82-1.415-1.47-2.063-1.188-1.185-2.622-1.903-4.328-2.167-0.253-0.038-0.475-0.052-0.988-0.058-0.365-0.002-0.713-0.002-0.775 0.005zM17.078 4.615c0.988 0.17 1.867 0.825 2.32 1.73 0.363 0.725 0.425 1.645 0.165 2.42-0.203 0.605-0.617 1.178-1.125 1.555-0.363 0.268-0.91 0.502-1.363 0.582-0.102 0.018-0.345 0.033-0.538 0.033-0.395 0-0.617-0.033-0.963-0.14-0.975-0.307-1.755-1.082-2.072-2.068-0.115-0.35-0.14-0.53-0.14-0.978 0.002-0.455 0.037-0.678 0.168-1.050 0.38-1.077 1.335-1.888 2.457-2.085 0.277-0.050 0.802-0.050 1.090 0z"></path>
    </symbol>    
    <symbol id="betterplace" viewBox="0 0 215 32">
      <path fill="#9ecb09" style="fill: var(--color1, #9ecb09)" d="M19.077 25.926c0.865-0.928 1.846-1.989 3.166-3.425 4.504-4.87 5.333-9.971 3.844-14.181-1.409-3.969-6.698-8.321-12.638-8.321-6.1 0.045-11.434 4.156-12.789 8.33-0.91 2.809-1.784 8.018 4.049 14.261l8.722 9.409 1.873-2.016s-6.136-6.644-8.366-9.052c-1.802-2.221-4.923-6.181-3.63-11.389 0.491-1.989 4.040-6.814 10.149-6.796 6.1 0.018 9.427 5.057 9.98 6.546 1.275 3.451 0.562 7.322-3.443 11.612-1.427 1.525-0.678 0.74-2.132 2.292 0 0-5.904-6.404-7.42-8.062-1.124-1.231-1.302-3.211-0.071-4.424 1.213-1.186 3.086-1.543 4.593-0.098l1.775 1.935c0.919 0.954 1.302 0.945 2.149 0.071 0.66-0.678 2.185-2.363 2.577-2.8-0.678-0.66-1.222-1.195-1.953-1.926-0.437 0.464-1.427 1.543-1.668 1.793-0.954-1.026-2.158-2.72-5.039-2.747-1.748 0-3.3 0.74-4.37 1.802-1.463 1.605-1.721 2.97-1.748 3.719-0.053 1.552 0.116 2.827 2.042 4.932 3.148 3.407 7.001 7.554 7.938 8.553 0.928 0.981 1.498 0.963 2.408-0.018z"></path>
      <path d="M185.944 24.384c0 0.954-0.767 1.748-1.748 1.748-0.954 0-1.721-0.794-1.721-1.748 0-0.936 0.767-1.721 1.721-1.721 0.981 0 1.748 0.794 1.748 1.721zM197.538 20.959c0 3.077-1.739 5.146-4.656 5.146-2.899 0-4.656-1.926-4.656-5.146 0-3.095 1.739-5.146 4.673-5.146 2.89 0 4.638 1.918 4.638 5.146zM190.939 20.959c0 2.239 0.66 3.211 1.944 3.211s1.944-0.99 1.944-3.211c0-2.239-0.66-3.211-1.926-3.211-1.302 0-1.962 0.99-1.962 3.211zM204.914 15.964l-0.437 2.515c-0.294-0.071-0.535-0.125-0.865-0.125-1.195 0-1.739 0.883-2.087 2.435v5.307h-2.604v-9.998h2.256l0.241 1.891c0.455-1.356 1.391-2.167 2.533-2.167 0.339 0 0.633 0.053 0.963 0.143zM214.635 16.633c-0.714 0.276-1.632 0.366-2.8 0.366 1.195 0.535 1.793 1.266 1.793 2.497 0 1.891-1.525 3.264-3.996 3.264-0.419 0-0.785-0.036-1.133-0.125-0.223 0.143-0.366 0.384-0.366 0.642 0 0.33 0.161 0.642 1.115 0.642h1.481c2.203 0 3.612 1.177 3.612 2.783 0 1.962-1.703 3.157-4.95 3.157-3.559 0-4.531-1.159-4.531-3.095h2.328c0 0.919 0.401 1.32 2.256 1.32 1.793 0 2.274-0.491 2.274-1.195 0-0.66-0.499-1.061-1.525-1.061h-1.427c-2.033 0-2.881-0.883-2.881-1.909 0-0.696 0.437-1.373 1.133-1.81-1.213-0.66-1.721-1.525-1.721-2.765 0-2.14 1.703-3.523 4.138-3.523 2.239 0.053 3.371-0.517 4.548-1.177zM207.911 19.291c0 1.115 0.624 1.775 1.614 1.775 1.043 0 1.596-0.624 1.596-1.81 0-1.159-0.535-1.703-1.614-1.703-0.99 0-1.596 0.678-1.596 1.739zM133.628 2.729l-4.468 1.436v11.692h-1.284c-0.419-4.022-2.462-7.287-7.108-7.287-2.631 0-4.326 1.168-5.324 2.827h-0.062v-2.426h-6.725c-2.667 0-3.362 2.301-3.567 3.897h-0.062v-3.897h-3.96v11.469c-2.667 1.686-5.253 2.881-7.822 2.89-2.765 0.009-4.691-1.9-4.896-4.656h10.783c0-5.993-2.051-10.007-7.081-10.025-5.324-0.018-7.955 4.094-7.955 9.052 0 1.748 0.321 3.264 0.928 4.531-0.794 0.437-1.73 0.82-2.658 0.82-1.695-0.009-2.096-1.365-2.096-2.827v-7.991h2.845l1.962-3.264h-4.798v-6.154l-4.459 1.436v4.718h-4.709v-6.154l-4.459 1.436-0.009 4.754h-1.766v3.202h1.775v7.955c-2.774 1.802-5.476 3.086-8.143 3.095-2.765 0.009-4.691-1.819-4.896-4.584h10.729c0-5.993-1.998-10.078-7.037-10.096-4.682-0.018-7.278 3.157-7.839 7.287h-1.133c-0.419-4.022-2.462-7.287-7.108-7.287-2.328 0-3.897 0.963-5.128 2.595h-0.062v-8.428l-4.459 1.4v21.975h4.326v-2.096h0.062c1.302 1.828 3.362 2.497 5.262 2.497 4.629 0 6.671-3.817 7.099-7.822h1.106c0.562 4.673 3.746 7.822 8.865 7.822 2.265 0 4.959-0.838 8.865-2.863 0.794 1.793 2.462 2.854 4.905 2.854 1.32 0 2.096-0.241 2.97-0.651l-1.168-3.095c-0.232 0.152-0.499 0.259-0.847 0.276-1.695 0.080-1.918-1.356-1.918-2.818v-7.991h4.709v8.722c0 3.398 1.926 5.556 5.423 5.556 2.613 0 3.523-0.633 5.69-1.837 1.507 1.24 3.576 1.909 6.127 1.909 2.105 0 4.566-0.713 8.027-2.435v1.962h4.459v-6.288c0-2.462 0-6.992 3.63-6.992 0.776 0 1.552 0.125 1.962 0.348v18.8h4.459v-7.839h0.062c1.561 1.9 3.13 2.363 5.030 2.363 4.905 0 6.93-3.63 7.242-7.839h1.249v2.203c0 3.398 1.926 5.556 5.423 5.556 2.132 0 2.988-0.419 3.692-0.74 0.99 0.535 2.167 0.82 3.353 0.82 2.033 0 4.263-1.061 5.289-2.961h0.062c0.036 0.535 0.036 1.668 0.196 2.56h3.924c-0.098-1.329-0.169-2.533-0.196-3.826-0.027-0.963-0.054-2.462-0.062-3.639h1.070c0.562 4.326 3.353 7.857 8.348 7.866 1.846 0 4.468-0.865 6.609-2.426 1.534 1.623 3.826 2.497 6.751 2.497 2.399 0 4.557-0.865 6.065-1.918v-3.612c-2.016 1.703-3.487 2.265-5.86 2.265-2.765 0-4.691-1.9-4.896-4.656h10.783c0-5.993-2.051-10.007-7.081-10.025-5.324-0.018-7.955 4.094-7.955 9.052 0 1.373 0.196 2.613 0.58 3.692-1.088 0.865-2.248 1.579-4.165 1.659-3.13 0.134-4.629-2.426-4.629-5.592 0-3.229 1.766-5.414 4.531-5.423 1.24 0 1.57 0.169 2.462 0.669l1.347-2.783c-1.721-0.856-2.916-1.347-4.718-1.347-4.647 0-7.474 3.3-8.143 7.322h-1.124c-0.071-4.878-2.239-7.322-7.376-7.322-1.9 0-4.227 0.499-5.958 1.302l0.134 3.826c1.498-1.133 3.398-1.864 5.289-1.864 2.631 0 3.853 1.284 3.853 4.049h-2.462c-1.864 0-4.049-0.187-5.744 0.642s-2.925 2.328-2.925 4.896c0 0.767 0.161 1.454 0.455 2.051-0.125 0.036-0.25 0.053-0.375 0.053-1.695 0-2.096-1.926-2.096-3.389zM57.32 11.826c2.346 0 3.291 1.864 3.416 4.031h-7.144c0.187-2.301 1.373-4.031 3.728-4.031zM39.973 23.046c-2.961 0-3.924-3.13-3.924-5.556 0-2.399 1.133-5.458 3.996-5.458 2.899 0 3.692 3.166 3.692 5.458 0 2.363-0.838 5.556-3.764 5.556zM92.076 11.906c2.346 0 3.291 1.793 3.416 3.951h-7.144c0.187-2.301 1.373-3.951 3.728-3.951zM119.536 23.046c-2.961 0-3.924-3.13-3.924-5.556 0-2.399 1.133-5.458 3.996-5.458 2.899 0 3.692 3.166 3.692 5.458 0 2.363-0.829 5.556-3.764 5.556zM145.864 21.717c-0.696 0.936-1.766 1.534-3.13 1.534-1.596 0-2.827-0.633-2.827-2.096 0-2.506 2.907-2.497 4.905-2.497h1.926c-0.062 1.4-0.348 2.346-0.874 3.059zM172.673 11.906c2.346 0 3.282 1.793 3.407 3.951h-7.144c0.196-2.301 1.391-3.951 3.737-3.951z"></path>
    </symbol>
  </defs>
</svg>
