<svg xmlns="http://www.w3.org/2000/svg" aria-hidden="true" style="position:absolute;width:0;height:0;overflow:hidden">
<defs>
<symbol id="icon-chevrons-down" viewBox="0 0 24 24">
<path d="m6.293 13.707 5 5a.999.999 0 0 0 1.414 0l5-5a.999.999 0 1 0-1.414-1.414L12 16.586l-4.293-4.293a.999.999 0 1 0-1.414 1.414zm0-7 5 5a.999.999 0 0 0 1.414 0l5-5a.999.999 0 1 0-1.414-1.414L12 9.586 7.707 5.293a.999.999 0 1 0-1.414 1.414z"/>
</symbol>
<symbol id="icon-chevrons-up" viewBox="0 0 24 24">
<path d="m17.707 10.293-5-5a.999.999 0 0 0-1.414 0l-5 5a.999.999 0 1 0 1.414 1.414L12 7.414l4.293 4.293a.999.999 0 1 0 1.414-1.414zm0 7-5-5a.999.999 0 0 0-1.414 0l-5 5a.999.999 0 1 0 1.414 1.414L12 14.414l4.293 4.293a.999.999 0 1 0 1.414-1.414z"/>
</symbol></defs></svg>